<svg xmlns="http://www.w3.org/2000/svg" xmlns:xlink="http://www.w3.org/1999/xlink" viewBox="0 0 522.06 40"><defs><style>.cls-1{fill:url(#New_Gradient_Swatch_5);}.cls-2{fill:url(#New_Gradient_Swatch_5-2);}.cls-3{fill:url(#New_Gradient_Swatch_5-3);}.cls-4{fill:url(#New_Gradient_Swatch_5-4);}.cls-5{fill:url(#New_Gradient_Swatch_5-5);}.cls-6{fill:url(#New_Gradient_Swatch_5-6);}.cls-7{fill:url(#New_Gradient_Swatch_5-7);}.cls-8{fill:url(#New_Gradient_Swatch_5-8);}.cls-9{fill:url(#New_Gradient_Swatch_5-9);}.cls-10{fill:url(#New_Gradient_Swatch_5-10);}.cls-11{fill:url(#New_Gradient_Swatch_5-11);}.cls-12{fill:url(#New_Gradient_Swatch_5-12);}.cls-13{fill:url(#New_Gradient_Swatch_5-13);}.cls-14{fill:url(#New_Gradient_Swatch_5-14);}.cls-15{fill:url(#New_Gradient_Swatch_5-15);}.cls-16{fill:url(#New_Gradient_Swatch_5-16);}.cls-17{fill:url(#New_Gradient_Swatch_5-17);}.cls-18{fill:url(#New_Gradient_Swatch_5-18);}</style><linearGradient id="New_Gradient_Swatch_5" x1="9.1" y1="40" x2="9.1" y2="2.12" gradientUnits="userSpaceOnUse"><stop offset="0" stop-color="#cf9b2c"/><stop offset="0.01" stop-color="#be8c27"/><stop offset="0.03" stop-color="#a0711f"/><stop offset="0.05" stop-color="#885c19"/><stop offset="0.07" stop-color="#774d15"/><stop offset="0.1" stop-color="#6d4412"/><stop offset="0.13" stop-color="#6a4111"/><stop offset="0.15" stop-color="#6e4413"/><stop offset="0.54" stop-color="#ca8b39"/><stop offset="0.55" stop-color="#cd9241"/><stop offset="0.67" stop-color="#e8ca89"/><stop offset="0.76" stop-color="#f9edb6"/><stop offset="0.8" stop-color="#fffbc7"/><stop offset="0.99" stop-color="#fdc53e"/></linearGradient><linearGradient id="New_Gradient_Swatch_5-2" x1="37.35" y1="40" x2="37.35" y2="12.94" xlink:href="#New_Gradient_Swatch_5"/><linearGradient id="New_Gradient_Swatch_5-3" x1="71.67" y1="39.2" x2="71.67" y2="0" xlink:href="#New_Gradient_Swatch_5"/><linearGradient id="New_Gradient_Swatch_5-4" x1="100.64" y1="40" x2="100.64" y2="12.94" xlink:href="#New_Gradient_Swatch_5"/><linearGradient id="New_Gradient_Swatch_5-5" x1="128.54" y1="39.2" x2="128.54" y2="13.37" xlink:href="#New_Gradient_Swatch_5"/><linearGradient id="New_Gradient_Swatch_5-6" x1="148.19" y1="39.2" x2="148.19" y2="2.12" xlink:href="#New_Gradient_Swatch_5"/><linearGradient id="New_Gradient_Swatch_5-7" x1="174.48" y1="39.2" x2="174.48" y2="1.33" xlink:href="#New_Gradient_Swatch_5"/><linearGradient id="New_Gradient_Swatch_5-8" x1="205.14" y1="40" x2="205.14" y2="1.33" xlink:href="#New_Gradient_Swatch_5"/><linearGradient id="New_Gradient_Swatch_5-9" x1="253.5" y1="40" x2="253.5" y2="1.33" xlink:href="#New_Gradient_Swatch_5"/><linearGradient id="New_Gradient_Swatch_5-10" x1="275.64" y1="39.2" x2="275.64" y2="0" xlink:href="#New_Gradient_Swatch_5"/><linearGradient id="New_Gradient_Swatch_5-11" x1="299.73" y1="40" x2="299.73" y2="12.94" xlink:href="#New_Gradient_Swatch_5"/><linearGradient id="New_Gradient_Swatch_5-12" x1="326.2" y1="40" x2="326.2" y2="6.1" xlink:href="#New_Gradient_Swatch_5"/><linearGradient id="New_Gradient_Swatch_5-13" x1="375.7" y1="40" x2="375.7" y2="1.33" xlink:href="#New_Gradient_Swatch_5"/><linearGradient id="New_Gradient_Swatch_5-14" x1="413.49" y1="39.2" x2="413.49" y2="12.94" xlink:href="#New_Gradient_Swatch_5"/><linearGradient id="New_Gradient_Swatch_5-15" x1="436.86" y1="39.2" x2="436.86" y2="0" xlink:href="#New_Gradient_Swatch_5"/><linearGradient id="New_Gradient_Swatch_5-16" x1="451.29" y1="39.2" x2="451.29" y2="0.58" xlink:href="#New_Gradient_Swatch_5"/><linearGradient id="New_Gradient_Swatch_5-17" x1="475.24" y1="39.2" x2="475.24" y2="12.94" xlink:href="#New_Gradient_Swatch_5"/><linearGradient id="New_Gradient_Swatch_5-18" x1="507.47" y1="40" x2="507.47" y2="12.94" xlink:href="#New_Gradient_Swatch_5"/></defs><title>joker123_slot_online</title><g id="Layer_2" data-name="Layer 2"><g id="Layer_1-2" data-name="Layer 1"><path class="cls-1" d="M2.89,39.66A10.16,10.16,0,0,1,0,38.78V30.5a7.92,7.92,0,0,0,2,.59,15.12,15.12,0,0,0,2.52.21,4.49,4.49,0,0,0,3.29-1,4.57,4.57,0,0,0,1-3.26V2.12H18.2v26q0,5.46-3,8.67T6.58,40A22,22,0,0,1,2.89,39.66Z"/><path class="cls-2" d="M29.07,38.28a13,13,0,0,1-5.49-4.78,12.84,12.84,0,0,1-1.94-7,12.87,12.87,0,0,1,1.94-7,13.09,13.09,0,0,1,5.49-4.77,18.76,18.76,0,0,1,8.28-1.73,18.74,18.74,0,0,1,8.27,1.73,13.09,13.09,0,0,1,5.49,4.77,12.87,12.87,0,0,1,1.94,7,12.84,12.84,0,0,1-1.94,7,13,13,0,0,1-5.49,4.78A18.88,18.88,0,0,1,37.35,40,18.9,18.9,0,0,1,29.07,38.28Zm12.76-7.22a6.21,6.21,0,0,0,1.67-4.59,6.24,6.24,0,0,0-1.67-4.59,6.07,6.07,0,0,0-4.48-1.67,6.09,6.09,0,0,0-4.49,1.67,6.24,6.24,0,0,0-1.67,4.59,6.21,6.21,0,0,0,1.67,4.59,6.05,6.05,0,0,0,4.49,1.67A6,6,0,0,0,41.83,31.06Z"/><path class="cls-3" d="M56.76,0H66.1V24l8.38-10.24H85.2L75.07,26.05,86.58,39.2H75.86L66.1,28V39.2H56.76Z"/><path class="cls-4" d="M90.32,36.5Q86,33,86.05,26.58t3.79-10q3.8-3.66,11-3.66a16.55,16.55,0,0,1,7.83,1.73,11.78,11.78,0,0,1,4.93,4.72,13.58,13.58,0,0,1,1.67,6.76V29.6H94.91a4.42,4.42,0,0,0,2.65,3.08,14.45,14.45,0,0,0,5.78,1,32.42,32.42,0,0,0,5.12-.42A22.15,22.15,0,0,0,113,32V38.2a24.45,24.45,0,0,1-4.91,1.3,36.23,36.23,0,0,1-6,.5Q94.59,40,90.32,36.5Zm16.1-12.73a4.52,4.52,0,0,0-1.7-3.24,6.43,6.43,0,0,0-4.08-1.17,6.25,6.25,0,0,0-4,1.2,4.52,4.52,0,0,0-1.69,3.21Z"/><path class="cls-5" d="M118.94,13.74h9v3.18a9.51,9.51,0,0,1,4.19-2.62,18.32,18.32,0,0,1,6-.93v7.16a17.56,17.56,0,0,0-6.18,1,6.41,6.41,0,0,0-3.69,3V39.2h-9.33Z"/><path class="cls-6" d="M147.27,12.57,139.73,18V8.81l9.13-6.69h7.8V39.2h-9.39Z"/><path class="cls-7" d="M160.37,33.85l5.89-5.36,2.54-2.28q3.13-2.76,4.8-4.41a18.78,18.78,0,0,0,2.76-3.34,6.12,6.12,0,0,0,1.09-3.34q0-4.93-5.57-4.93a15.41,15.41,0,0,0-5.33,1,18.3,18.3,0,0,0-4.85,2.65v-9a19.06,19.06,0,0,1,5.57-2.58,24.43,24.43,0,0,1,6.79-.92,15.71,15.71,0,0,1,7.16,1.53,11.05,11.05,0,0,1,4.61,4.25,11.81,11.81,0,0,1,1.59,6.1,13.24,13.24,0,0,1-1.88,7.13,33.75,33.75,0,0,1-6.07,6.87l-4.72,4.3h13.84V39.2H160.37Z"/><path class="cls-8" d="M196.73,39.42a20.14,20.14,0,0,1-5.49-1.75V30.24a25.88,25.88,0,0,0,10.83,2.44q7.37,0,7.37-4.4a3.37,3.37,0,0,0-1.8-3.21,12.21,12.21,0,0,0-5.63-1h-5.14V16.92h4.93a9.23,9.23,0,0,0,4.85-1.06,3.45,3.45,0,0,0,1.73-3.13,3.44,3.44,0,0,0-1.54-3,7.6,7.6,0,0,0-4.35-1.06,19.28,19.28,0,0,0-10.5,3V4a22.35,22.35,0,0,1,5.46-2,28.4,28.4,0,0,1,6.37-.71q7.26,0,10.71,2.89A10,10,0,0,1,218,12.36a9.38,9.38,0,0,1-1.14,4.51,10.06,10.06,0,0,1-3.37,3.61Q219,22.91,219,28.75a10,10,0,0,1-3.66,8.3q-3.66,3-11.94,3A38.35,38.35,0,0,1,196.73,39.42Z"/><path class="cls-9" d="M245.41,39.34a21.06,21.06,0,0,1-5.68-1.83V29.07a26.38,26.38,0,0,0,6,2.23,25.15,25.15,0,0,0,5.91.74,7.76,7.76,0,0,0,3.93-.79A2.53,2.53,0,0,0,256.87,29a2.84,2.84,0,0,0-.72-1.94,6.77,6.77,0,0,0-2.1-1.51q-1.38-.69-4.29-1.91a20.47,20.47,0,0,1-7.48-4.83,9.51,9.51,0,0,1-2.34-6.53,9.48,9.48,0,0,1,1.78-5.67,11.66,11.66,0,0,1,5-3.88A18.41,18.41,0,0,1,254,1.33a30.61,30.61,0,0,1,6.05.53,21.74,21.74,0,0,1,5.09,1.69v8.23a20,20,0,0,0-9.39-2.44,8.5,8.5,0,0,0-4.06.82,2.58,2.58,0,0,0-1.51,2.36A2.83,2.83,0,0,0,251.72,15a40,40,0,0,0,5.68,2.6,30.28,30.28,0,0,1,5.86,3,9.23,9.23,0,0,1,3.05,3.44,11.39,11.39,0,0,1,.95,5,9.58,9.58,0,0,1-3.74,8Q259.78,40,252.36,40A36.85,36.85,0,0,1,245.41,39.34Z"/><path class="cls-10" d="M271,0h9.33V39.2H271Z"/><path class="cls-11" d="M291.45,38.28A13,13,0,0,1,286,33.5a12.84,12.84,0,0,1-1.93-7,12.86,12.86,0,0,1,1.93-7,13.09,13.09,0,0,1,5.49-4.77,20.68,20.68,0,0,1,16.56,0,13.22,13.22,0,0,1,5.49,4.77,12.86,12.86,0,0,1,1.93,7,12.84,12.84,0,0,1-1.93,7A13.17,13.17,0,0,1,308,38.28a20.79,20.79,0,0,1-16.56,0Zm12.76-7.22a6.17,6.17,0,0,0,1.67-4.59,6.2,6.2,0,0,0-1.67-4.59,6.84,6.84,0,0,0-9,0,6.2,6.2,0,0,0-1.67,4.59,6.17,6.17,0,0,0,1.67,4.59,6.84,6.84,0,0,0,9,0Z"/><path class="cls-12" d="M322.25,37.37a10.19,10.19,0,0,1-2.41-7.18v-10h-3.61V13.74h3.61V6.1h9.33v7.64H335v6.47h-5.84v8.7a4.58,4.58,0,0,0,.77,3,3.46,3.46,0,0,0,2.73.9,7.24,7.24,0,0,0,3.51-1v7a13.17,13.17,0,0,1-2.95.93,21.9,21.9,0,0,1-3.85.29Q324.67,40,322.25,37.37Z"/><path class="cls-13" d="M365.59,37.56a18.35,18.35,0,0,1-7.16-6.82,19.17,19.17,0,0,1-2.63-10,19.33,19.33,0,0,1,2.63-10.08,18.19,18.19,0,0,1,7.16-6.84,22.27,22.27,0,0,1,20.27,0A18,18,0,0,1,393,10.61a19.5,19.5,0,0,1,2.6,10.08,19.34,19.34,0,0,1-2.6,10,18.13,18.13,0,0,1-7.13,6.82,22.27,22.27,0,0,1-20.27,0Zm15.3-7.64a9.48,9.48,0,0,0,3.72-3.66A10.93,10.93,0,0,0,386,20.69a10.86,10.86,0,0,0-1.36-5.54A9.45,9.45,0,0,0,381,11.49a11.15,11.15,0,0,0-10.45,0,9.41,9.41,0,0,0-3.69,3.66,11,11,0,0,0-1.35,5.54,11.13,11.13,0,0,0,1.35,5.57,9.26,9.26,0,0,0,3.71,3.66,10.85,10.85,0,0,0,5.23,1.27A10.53,10.53,0,0,0,380.89,29.92Z"/><path class="cls-14" d="M399.3,13.74h9v2.81a10.36,10.36,0,0,1,4-2.7,13.25,13.25,0,0,1,4.88-.91c3.57,0,6.22.93,7.93,2.79a10.7,10.7,0,0,1,2.58,7.56V39.2h-9.34V24.51q0-4.31-3.93-4.3a6.77,6.77,0,0,0-3.29.82,6.69,6.69,0,0,0-2.49,2.52V39.2H399.3Z"/><path class="cls-15" d="M432.19,0h9.34V39.2h-9.34Z"/><path class="cls-16" d="M447.74,9a4.64,4.64,0,0,1-1.43-3.51A4.65,4.65,0,0,1,447.74,2a5.15,5.15,0,0,1,7.08,0,4.64,4.64,0,0,1,1.46,3.47,4.66,4.66,0,0,1-1.46,3.48,5.22,5.22,0,0,1-7.08,0Zm-1.12,4.77H456V39.2h-9.34Z"/><path class="cls-17" d="M461.05,13.74h9v2.81a10.36,10.36,0,0,1,4-2.7,13.25,13.25,0,0,1,4.88-.91c3.57,0,6.22.93,7.93,2.79a10.7,10.7,0,0,1,2.58,7.56V39.2H480.1V24.51q0-4.31-3.93-4.3a6.77,6.77,0,0,0-3.29.82,6.69,6.69,0,0,0-2.49,2.52V39.2h-9.34Z"/><path class="cls-18" d="M497.15,36.5q-4.26-3.51-4.27-9.92t3.8-10c2.52-2.44,6.18-3.66,10.95-3.66a16.58,16.58,0,0,1,7.83,1.73,11.78,11.78,0,0,1,4.93,4.72,13.69,13.69,0,0,1,1.67,6.76V29.6H501.74a4.46,4.46,0,0,0,2.65,3.08,14.54,14.54,0,0,0,5.79,1,32.42,32.42,0,0,0,5.12-.42A21.88,21.88,0,0,0,519.83,32V38.2a24.34,24.34,0,0,1-4.9,1.3,36.35,36.35,0,0,1-6,.5Q501.43,40,497.15,36.5Zm16.1-12.73a4.51,4.51,0,0,0-1.69-3.24,6.46,6.46,0,0,0-4.09-1.17,6.22,6.22,0,0,0-4,1.2,4.53,4.53,0,0,0-1.7,3.21Z"/></g></g></svg>